<?xml version="1.0" standalone="no"?>
<!DOCTYPE svg PUBLIC "-//W3C//DTD SVG 20010904//EN"
 "http://www.w3.org/TR/2001/REC-SVG-20010904/DTD/svg10.dtd">
<svg version="1.0" xmlns="http://www.w3.org/2000/svg"
 width="837.000000pt" height="563.000000pt" viewBox="0 0 837.000000 563.000000"
 preserveAspectRatio="xMidYMid meet">

<g transform="translate(0.000000,563.000000) scale(0.100000,-0.100000)"
fill="#000000" stroke="none">
<path d="M0 2815 l0 -2815 4185 0 4185 0 0 2815 0 2815 -4185 0 -4185 0 0
-2815z m4438 2069 c359 -50 673 -168 982 -370 106 -69 258 -200 257 -221 -2
-12 5 -18 22 -19 15 -1 46 -25 87 -69 64 -68 77 -89 49 -79 -8 4 -15 1 -15 -6
0 -6 4 -9 9 -5 5 3 12 1 16 -5 4 -6 11 -8 16 -5 12 8 60 -47 54 -63 -3 -7 -1
-11 4 -7 22 13 165 -207 261 -399 40 -81 71 -149 68 -151 -2 -3 -26 42 -53 99
-31 68 -57 109 -72 117 -15 8 -19 15 -12 20 6 4 8 12 4 19 -6 9 -10 9 -17 -1
-6 -10 -7 -7 -3 10 5 17 4 22 -5 16 -9 -5 -11 -4 -6 4 6 9 -48 111 -58 111 -1
0 -2 -10 -3 -21 -3 -38 -20 -42 -19 -5 1 19 4 32 8 29 15 -9 8 17 -10 34 -10
10 -31 37 -46 61 -27 40 -62 59 -50 27 4 -8 1 -15 -5 -15 -6 0 -11 -7 -11 -15
0 -8 -7 -15 -15 -15 -8 0 -15 7 -15 15 0 8 -4 15 -10 15 -9 0 -13 -20 -14 -82
0 -15 -4 -25 -8 -22 -14 9 -8 -13 7 -26 8 -7 15 -8 15 -3 0 16 38 12 44 -4 6
-14 4 -14 -11 -2 -15 12 -16 12 -10 -5 6 -16 5 -17 -8 -6 -20 16 -19 6 1 -25
9 -14 21 -22 26 -19 14 9 29 -17 22 -37 -2 -9 2 -24 10 -32 8 -8 12 -17 9 -21
-3 -3 2 -8 11 -12 9 -3 16 -14 16 -23 1 -13 2 -13 11 3 9 14 8 20 -2 27 -10 6
-7 8 9 6 27 -2 26 1 3 -38 l-19 -31 -15 23 c-119 194 -194 292 -327 432 -75
78 -100 117 -42 66 l27 -24 -25 28 c-13 15 -30 25 -38 22 -8 -3 -47 22 -90 59
-177 147 -421 278 -667 358 -221 71 -415 100 -670 100 -429 -1 -817 -114
-1165 -340 -133 -86 -268 -194 -353 -281 -79 -82 -94 -94 -83 -65 5 14 4 15
-8 5 -18 -15 -26 -2 -25 41 1 39 -4 65 -16 75 -4 4 -5 2 -1 -4 5 -9 1 -13 -11
-13 -15 0 -15 -2 -3 -10 12 -8 12 -11 -3 -28 -9 -10 -17 -34 -17 -52 0 -31 1
-32 14 -15 12 17 15 18 30 3 8 -9 21 -18 28 -20 7 -3 -14 -38 -55 -89 -69 -86
-89 -114 -147 -207 -24 -38 -35 -50 -41 -40 -5 7 -9 18 -9 23 0 6 5 3 10 -5 7
-12 12 -7 25 23 8 20 20 37 25 37 15 0 12 17 -6 34 -8 9 -10 16 -4 16 6 0 13
-7 17 -16 5 -14 8 -13 18 7 14 24 8 61 -5 39 -4 -6 -7 1 -6 17 1 17 6 30 13
30 7 0 10 -4 7 -9 -8 -13 6 -49 17 -42 5 3 7 14 4 24 -3 10 -1 21 4 25 7 3 8
0 5 -9 -10 -26 2 -18 30 19 22 28 25 38 16 52 -11 17 -11 17 -6 1 3 -10 1 -20
-3 -22 -5 -3 -8 4 -7 16 1 14 9 22 25 25 18 2 21 0 15 -10 -8 -11 7 6 36 40
18 22 -5 22 -40 0 -35 -22 -120 -32 -120 -14 0 6 -5 5 -12 0 -7 -5 -24 -10
-36 -11 -31 -1 -71 -52 -42 -52 6 0 10 -12 9 -27 l-1 -28 -10 28 c-9 25 -28
29 -28 6 0 -6 3 -8 8 -6 4 3 8 -11 9 -31 l1 -37 -9 33 -10 33 -18 -23 c-38
-49 -112 -188 -109 -205 2 -10 -2 -17 -7 -16 -16 2 -94 -154 -96 -191 -1 -17
-2 -18 -6 -4 -14 56 221 475 352 628 93 108 106 122 111 117 3 -2 -9 -20 -25
-38 -17 -18 -28 -35 -25 -38 3 -3 10 2 15 11 5 10 15 15 23 12 22 -9 39 21 26
47 -9 15 -9 23 -1 28 6 4 43 38 83 77 104 99 176 156 188 149 6 -4 9 -2 8 3
-7 26 253 188 420 263 419 186 869 253 1300 193z m1262 -594 c0 -5 -4 -10 -10
-10 -5 0 -10 5 -10 10 0 6 5 10 10 10 6 0 10 -4 10 -10z m-3266 -145 c-7 -16
-24 -21 -24 -6 0 8 7 13 27 20 1 1 0 -6 -3 -14z m-869 -79 c92 -43 145 -125
145 -222 0 -45 -26 -124 -40 -124 -5 0 -11 -9 -15 -20 -6 -19 -109 -90 -130
-90 -5 0 11 13 38 28 26 16 44 32 40 37 -5 4 -3 5 3 2 7 -4 18 1 25 10 12 14
12 16 -2 11 -26 -10 -43 6 -29 28 9 16 11 16 6 2 -3 -10 -1 -20 4 -23 6 -4 10
-1 10 6 0 8 4 9 13 0 11 -8 18 -2 35 28 31 55 38 181 10 181 -5 0 -4 -8 2 -19
14 -28 13 -31 -13 -31 -13 0 -28 -5 -35 -12 -8 -8 -15 -8 -27 2 -13 11 -15 9
-15 -14 0 -15 7 -41 16 -57 8 -17 13 -33 11 -36 -3 -2 -11 9 -18 26 -9 19 -16
26 -21 18 -4 -6 1 -21 10 -32 16 -18 16 -19 0 -7 -14 11 -22 9 -55 -12 -30
-20 -49 -25 -90 -23 -28 1 -46 5 -40 9 9 6 9 8 0 8 -7 0 -25 18 -39 40 -28 42
-34 94 -15 113 15 15 14 27 -4 27 -9 0 -15 -9 -15 -22 0 -34 -13 -49 -30 -38
-11 7 -12 10 -2 10 8 0 11 7 8 18 -7 24 31 72 43 54 4 -8 12 -14 17 -15 5 -1
7 -9 5 -17 -14 -62 -12 -107 9 -132 62 -80 195 -35 195 66 0 82 -75 133 -151
101 -30 -12 -39 -13 -55 -1 -17 12 -18 15 -4 26 22 18 19 32 -7 28 -11 -2 -23
3 -26 11 -3 8 0 11 6 7 6 -4 16 2 22 13 9 17 8 19 -5 15 -8 -3 -12 -11 -8 -17
4 -6 1 -7 -7 -2 -15 9 -80 -60 -79 -84 0 -10 4 -8 9 6 6 14 15 21 24 17 8 -3
17 -1 21 5 3 7 0 8 -9 5 -9 -3 -16 -2 -16 4 0 18 29 21 46 5 14 -14 14 -18 2
-22 -31 -13 -60 -40 -53 -51 4 -6 4 -19 0 -28 -6 -14 -10 -12 -20 12 l-13 30
-7 -53 c-6 -45 -4 -55 14 -75 12 -12 21 -26 21 -31 0 -5 -7 0 -16 11 -14 18
-15 18 -8 -6 14 -51 24 -71 34 -65 6 3 7 -1 4 -9 -3 -9 -2 -16 2 -16 5 -1 23
-12 39 -26 17 -14 21 -21 10 -16 -54 27 -107 102 -120 172 -3 19 -1 57 5 83
34 154 198 238 335 173z m5312 -5 c51 -26 106 -89 121 -140 33 -110 -2 -206
-102 -281 -18 -13 -19 -13 -11 0 5 8 19 23 32 33 13 10 21 23 18 28 -4 5 0 6
8 3 10 -3 19 8 30 34 20 50 33 123 18 102 -9 -12 -11 -9 -11 13 0 19 -4 26
-12 21 -7 -5 -8 -3 -3 5 7 13 -26 51 -45 51 -14 0 -13 -13 2 -28 14 -14 8 -15
-26 -2 -21 8 -24 7 -19 -8 4 -9 12 -26 20 -37 11 -17 13 -17 13 -2 0 9 5 17
11 17 6 0 8 -7 5 -16 -3 -9 -6 -27 -6 -40 0 -13 -4 -24 -10 -24 -5 0 -10 7
-10 16 0 8 -5 12 -11 9 -6 -4 -8 -14 -5 -22 3 -8 2 -12 -2 -10 -4 3 -18 -6
-32 -19 -13 -13 -20 -24 -14 -24 6 0 11 -7 11 -16 0 -15 -1 -15 -12 0 -10 13
-18 14 -41 6 -27 -11 -49 -9 -91 7 -15 6 -16 4 -6 -8 10 -12 8 -15 -7 -15 -10
0 -16 4 -14 8 8 13 -11 9 -25 -4 -11 -10 -12 -10 -7 -1 4 7 2 23 -4 35 -9 19
-9 21 2 8 12 -14 48 -24 48 -13 0 3 -10 13 -22 23 -13 10 -23 24 -24 32 0 7
-2 22 -2 32 -1 11 -5 17 -8 14 -9 -10 -45 32 -38 43 4 6 14 2 25 -10 26 -28
28 -27 24 16 -2 24 0 32 6 22 7 -12 9 -11 9 2 0 9 -7 20 -16 23 -9 3 -12 11
-8 18 6 10 4 11 -7 1 -7 -7 -17 -13 -22 -13 -6 0 -5 5 0 13 15 18 12 46 -4 40
-24 -9 -13 13 18 36 73 54 176 63 256 22z m-267 -83 c0 -6 -7 -8 -15 -4 -17 6
-20 -5 -5 -20 11 -11 -2 -64 -15 -64 -4 0 -4 3 -2 8 3 4 -1 13 -9 20 -24 22
-17 -15 7 -39 17 -17 19 -25 10 -51 -6 -17 -8 -35 -4 -41 3 -5 1 -7 -4 -4 -13
8 -26 -20 -16 -36 24 -38 47 -56 60 -46 8 8 13 8 13 1 0 -6 -4 -12 -10 -14
-14 -5 0 -21 40 -46 20 -12 28 -22 19 -22 -32 0 -97 61 -128 120 -38 72 -33
168 11 232 18 26 48 29 48 6z m-655 -18 c3 -5 1 -10 -4 -10 -6 0 -11 5 -11 10
0 6 2 10 4 10 3 0 8 -4 11 -10z m18 -34 c18 -14 23 -36 8 -36 -5 0 -11 7 -15
15 -3 8 -15 15 -26 15 -11 0 -20 5 -20 10 0 14 32 12 53 -4z m-572 -28 c33
-19 56 -45 46 -54 -1 -2 -16 8 -31 21 -32 27 -41 31 -30 13 5 -7 2 -9 -8 -5
-11 4 -15 0 -14 -11 2 -10 16 -20 32 -23 24 -6 25 -7 6 -8 -24 -1 -58 14 -79
34 -15 16 -6 25 25 25 14 0 23 2 20 5 -3 3 -565 5 -1251 6 -1116 0 -1248 -1
-1276 -15 -18 -10 -28 -22 -25 -30 3 -7 -2 -21 -11 -30 -9 -9 -14 -20 -11 -24
3 -5 0 -28 -6 -52 -9 -35 -13 -40 -19 -24 -11 27 -10 54 1 29 7 -16 9 -13 8
15 -1 19 4 46 11 59 8 15 9 21 2 17 -6 -4 -19 -22 -28 -39 -14 -27 -18 -69
-20 -262 -2 -126 -5 -239 -7 -250 -2 -11 -4 87 -4 219 0 139 4 252 10 270 16
47 55 94 96 116 36 19 67 19 1281 20 l1243 0 39 -22z m-119 -10 c-5 -5 -476
-9 -1047 -10 -984 -3 -1040 -4 -1037 -20 3 -16 -8 -18 -118 -18 -73 0 -120 4
-120 10 0 10 22 12 142 13 31 1 55 4 52 8 -2 4 1 9 7 11 6 2 -41 3 -105 3 -64
0 -116 -4 -116 -8 0 -4 -15 -5 -33 -2 l-32 6 2 -48 c1 -28 -1 -42 -6 -34 -5 7
-6 22 -4 32 3 11 0 26 -7 34 -14 17 -5 22 45 27 69 7 2383 2 2377 -4z m668 -8
c0 -5 -2 -10 -4 -10 -3 0 -8 5 -11 10 -3 6 -1 10 4 10 6 0 11 -4 11 -10z
m-2430 -27 c0 -10 -21 -13 -80 -13 -57 0 -80 4 -80 13 0 8 23 12 80 12 59 1
80 -2 80 -12z m318 -1 c3 -9 -17 -12 -77 -12 -59 0 -81 3 -81 13 0 18 152 17
158 -1z m200 9 c30 -1 42 -5 42 -16 0 -17 -11 -18 -99 -9 -67 7 -88 32 -23 28
20 -1 56 -2 80 -3z m760 -9 c3 -9 -35 -12 -157 -12 -96 0 -161 4 -161 10 0 18
311 21 318 2z m320 0 c3 -9 -25 -12 -117 -12 -91 0 -121 3 -121 13 0 18 232
17 238 -1z m802 3 c0 -8 -2 -15 -4 -15 -2 0 -6 7 -10 15 -3 8 -1 15 4 15 6 0
10 -7 10 -15z m-4653 -27 c-3 -7 -5 -2 -5 12 0 14 2 19 5 13 2 -7 2 -19 0 -25z
m5700 -15 c-3 -10 -5 -4 -5 12 0 17 2 24 5 18 2 -7 2 -21 0 -30z m-936 0 c-12
-20 -14 -14 -5 12 4 9 9 14 11 11 3 -2 0 -13 -6 -23z m-4711 1 c0 -8 -4 -12
-10 -9 -5 3 -10 10 -10 16 0 5 5 9 10 9 6 0 10 -7 10 -16z m875 6 c-3 -5 -11
-10 -16 -10 -6 0 -7 5 -4 10 3 6 11 10 16 10 6 0 7 -4 4 -10z m3284 -17 c8
-19 10 -113 9 -298 l-3 -270 -3 276 c-1 212 -5 279 -15 294 -10 12 -16 14 -21
7 -4 -7 -26 -11 -49 -11 l-42 1 50 13 c28 7 53 14 56 14 4 1 12 -11 18 -26z
m1468 -5 c-3 -8 -6 -5 -6 6 -1 11 2 17 5 13 3 -3 4 -12 1 -19z m-884 6 c7 -7
-2 -34 -12 -34 -4 0 -7 9 -8 20 -2 19 8 26 20 14z m-3863 -10 c0 -2 -11 -15
-25 -30 -25 -27 -34 -19 -16 15 8 14 41 26 41 15z m3267 -72 c-3 -10 -5 -5 -6
10 0 14 -6 28 -13 30 -7 3 -9 11 -4 24 7 16 10 15 18 -14 5 -19 7 -41 5 -50z
m-3811 32 c-19 -18 -21 -11 -4 19 7 14 13 17 15 10 3 -7 -3 -20 -11 -29z m602
1 c-3 -3 -9 2 -12 12 -6 14 -5 15 5 6 7 -7 10 -15 7 -18z m4357 5 c3 -5 1 -10
-4 -10 -6 0 -11 5 -11 10 0 6 2 10 4 10 3 0 8 -4 11 -10z m262 -30 c-2 -23
-10 -17 -12 10 -1 10 2 17 6 14 4 -2 7 -13 6 -24z m-5302 10 c3 -5 1 -10 -4
-10 -6 0 -11 5 -11 10 0 6 2 10 4 10 3 0 8 -4 11 -10z m573 -25 c-3 -3 -9 2
-12 12 -6 14 -5 15 5 6 7 -7 10 -15 7 -18z m123 -2 c-12 -20 -14 -14 -5 12 4
9 9 14 11 11 3 -2 0 -13 -6 -23z m-911 -26 c0 -2 -8 -3 -18 -3 -10 0 -19 6
-19 13 0 8 6 9 19 2 10 -5 18 -11 18 -12z m4690 13 c0 -5 -4 -10 -10 -10 -5 0
-10 5 -10 10 0 6 5 10 10 10 6 0 10 -4 10 -10z m-4490 -4 c0 -3 -4 -8 -10 -11
-5 -3 -10 -1 -10 4 0 6 5 11 10 11 6 0 10 -2 10 -4z m5355 -6 c-3 -5 -11 -10
-16 -10 -6 0 -7 5 -4 10 3 6 11 10 16 10 6 0 7 -4 4 -10z m-780 -20 c3 -5 1
-10 -4 -10 -6 0 -11 5 -11 10 0 6 2 10 4 10 3 0 8 -4 11 -10z m-3875 -39 c0
-5 -9 -19 -21 -32 l-20 -24 17 33 c19 33 24 38 24 23z m961 -40 c33 -32 39
-45 39 -79 0 -23 -3 -43 -7 -45 -5 -3 -6 14 -5 37 3 37 -1 47 -31 79 -29 31
-41 37 -76 37 -75 0 -120 -40 -121 -105 0 -22 7 -53 16 -70 14 -28 14 -29 -2
-13 -10 10 -19 38 -22 70 -3 43 0 57 17 77 11 13 18 28 14 34 -3 6 -1 7 5 3 7
-4 20 -2 29 3 10 6 38 11 62 11 37 0 49 -5 82 -39z m52 21 c-3 -7 -9 -10 -12
-5 -3 4 -10 11 -15 15 -4 4 1 6 12 5 12 -1 18 -6 15 -15z m110 1 c-3 -7 -6
-13 -8 -13 -2 0 -5 6 -8 13 -3 8 1 14 8 14 7 0 11 -6 8 -14z m212 -13 c14 -13
25 -28 25 -34 -1 -6 -9 -2 -18 10 -25 30 -55 44 -94 44 -34 0 -98 -32 -98 -50
0 -5 -5 -10 -10 -10 -18 0 23 47 50 58 41 18 117 8 145 -18z m2393 5 c-3 -3
-9 2 -12 12 -6 14 -5 15 5 6 7 -7 10 -15 7 -18z m-788 5 c0 -5 -5 -10 -11 -10
-5 0 -7 5 -4 10 3 6 8 10 11 10 2 0 4 -4 4 -10z m1635 -20 c0 -16 -3 -30 -7
-30 -10 0 -10 44 -1 53 9 10 9 10 8 -23z m-3444 -3 c-10 -9 -11 -8 -5 6 3 10
9 15 12 12 3 -3 0 -11 -7 -18z m-1984 -244 c-1 -49 -3 -9 -3 87 0 96 2 136 3
88 2 -49 2 -127 0 -175z m5304 110 c-1 -75 -4 -139 -7 -142 -2 -2 -4 62 -4
144 0 82 3 146 6 142 3 -3 5 -68 5 -144z m-682 76 c17 -34 30 -64 28 -66 -4
-3 -22 32 -65 120 -2 4 -1 7 1 7 3 0 19 -28 36 -61z m-1223 41 c217 0 394 -3
394 -7 0 -5 -184 -7 -410 -5 -286 2 -410 6 -410 13 0 6 7 8 16 5 9 -3 193 -6
410 -6z m-2595 -27 c-12 -20 -14 -14 -5 12 4 9 9 14 11 11 3 -2 0 -13 -6 -23z
m2138 4 c-13 -13 -26 -22 -28 -20 -7 5 31 43 42 43 6 0 -1 -10 -14 -23z m-689
3 c0 -5 -2 -10 -4 -10 -3 0 -8 5 -11 10 -3 6 -1 10 4 10 6 0 11 -4 11 -10z
m-268 -34 c-2 -18 1 -44 8 -57 11 -23 10 -23 -4 -5 -16 20 -22 96 -8 96 4 0 6
-15 4 -34z m221 -74 c-9 -15 -18 -30 -18 -34 0 -3 -4 -10 -9 -15 -5 -5 -6 -3
-2 5 8 14 -10 17 -19 2 -3 -5 -11 -10 -18 -10 -6 0 5 11 24 25 42 28 48 41 51
98 l1 42 4 -43 c3 -30 -1 -52 -14 -70z m1615 77 c-3 -8 -7 -3 -11 10 -4 17 -3
21 5 13 5 -5 8 -16 6 -23z m1599 -76 c-2 -21 -4 -4 -4 37 0 41 2 58 4 38 2
-21 2 -55 0 -75z m-4634 62 c-3 -9 -8 -14 -10 -11 -3 3 -2 9 2 15 9 16 15 13
8 -4z m2134 -27 c-3 -7 -5 -2 -5 12 0 14 2 19 5 13 2 -7 2 -19 0 -25z m899
-23 c-3 -8 -10 -15 -15 -15 -5 0 -4 11 2 25 12 25 23 16 13 -10z m1043 -30 c0
-5 -4 -3 -9 5 -5 8 -9 22 -9 30 0 16 17 -16 18 -35z m-1488 15 c227 0 410 -2
407 -5 -3 -3 -192 -6 -419 -5 -365 0 -415 2 -429 16 -14 15 -13 15 7 5 15 -8
150 -11 434 -11z m-1557 -15 c-16 -24 -50 -42 -61 -31 -4 3 1 6 10 6 10 0 27
11 39 25 28 32 33 32 12 0z m221 -24 c-6 -5 -25 10 -25 20 0 5 6 4 14 -3 8 -7
12 -15 11 -17z m2855 -45 c0 -6 -7 -1 -15 10 -8 10 -14 26 -14 34 0 16 28 -28
29 -44z m-4167 -1 c-9 -19 -18 -33 -21 -31 -2 2 3 17 12 34 8 16 12 33 8 37
-4 5 -2 5 5 1 9 -5 8 -15 -4 -41z m1010 28 c-7 -2 -19 -2 -25 0 -7 3 -2 5 12
5 14 0 19 -2 13 -5z m380 0 c-7 -2 -19 -2 -25 0 -7 3 -2 5 12 5 14 0 19 -2 13
-5z m2577 -28 c0 -5 -5 -3 -10 5 -5 8 -10 20 -10 25 0 6 5 3 10 -5 5 -8 10
-19 10 -25z m727 -27 c-2 -13 -4 -3 -4 22 0 25 2 35 4 23 2 -13 2 -33 0 -45z
m-120 -85 c-3 -10 -5 -4 -5 12 0 17 2 24 5 18 2 -7 2 -21 0 -30z m-5170 -5
c-3 -8 -6 -5 -6 6 -1 11 2 17 5 13 3 -3 4 -12 1 -19z m1210 0 c-3 -8 -6 -5 -6
6 -1 11 2 17 5 13 3 -3 4 -12 1 -19z m17 -34 c3 -8 2 -12 -4 -9 -6 3 -10 10
-10 16 0 14 7 11 14 -7z m4053 -26 c-3 -8 -6 -5 -6 6 -1 11 2 17 5 13 3 -3 4
-12 1 -19z m-660 -20 c-3 -8 -6 -5 -6 6 -1 11 2 17 5 13 3 -3 4 -12 1 -19z
m10 -40 c-3 -8 -6 -5 -6 6 -1 11 2 17 5 13 3 -3 4 -12 1 -19z m-3154 -15 c-18
-2 -48 -2 -65 0 -18 2 -4 4 32 4 36 0 50 -2 33 -4z m170 0 c-13 -2 -33 -2 -45
0 -13 2 -3 4 22 4 25 0 35 -2 23 -4z m240 0 c-13 -2 -33 -2 -45 0 -13 2 -3 4
22 4 25 0 35 -2 23 -4z m780 0 c-128 -2 -338 -2 -465 0 -128 1 -24 2 232 2
256 0 360 -1 233 -2z m520 0 c-46 -2 -120 -2 -165 0 -46 1 -9 3 82 3 91 0 128
-2 83 -3z m460 0 c-13 -2 -33 -2 -45 0 -13 2 -3 4 22 4 25 0 35 -2 23 -4z
m275 -238 c-3 -3 -9 2 -12 12 -6 14 -5 15 5 6 7 -7 10 -15 7 -18z m29 -77 c-3
-8 -6 -5 -6 6 -1 11 2 17 5 13 3 -3 4 -12 1 -19z"/>
<path d="M4378 4713 c7 -3 16 -2 19 1 4 3 -2 6 -13 5 -11 0 -14 -3 -6 -6z"/>
<path d="M5068 4678 c5 -5 16 -8 23 -6 8 3 3 7 -10 11 -17 4 -21 3 -13 -5z"/>
<path d="M4708 4643 c7 -3 16 -2 19 1 4 3 -2 6 -13 5 -11 0 -14 -3 -6 -6z"/>
<path d="M2866 4525 c-11 -8 -15 -15 -9 -15 6 0 16 7 23 15 16 19 11 19 -14 0z"/>
<path d="M5182 4481 c-11 -7 -11 -9 0 -14 9 -3 15 1 15 9 0 8 -1 14 -1 14 -1
0 -7 -4 -14 -9z"/>
<path d="M5141 4466 c2 -2 15 -9 29 -15 24 -11 24 -11 6 3 -16 13 -49 24 -35
12z"/>
<path d="M2690 4406 c0 -2 7 -7 16 -10 8 -3 12 -2 9 4 -6 10 -25 14 -25 6z"/>
<path d="M2890 4395 c-7 -9 -11 -18 -8 -20 3 -3 11 1 18 10 7 9 11 18 8 20 -3
3 -11 -1 -18 -10z"/>
<path d="M5272 4394 c10 -10 20 -16 22 -13 3 3 -5 11 -17 18 -21 13 -21 12 -5
-5z"/>
<path d="M5555 4386 c17 -14 25 -25 18 -26 -6 0 -15 5 -18 10 -9 14 -22 12
-22 -3 0 -10 35 -16 56 -8 7 2 -23 32 -43 42 -13 7 -9 1 9 -15z"/>
<path d="M5310 4376 c0 -2 8 -10 18 -17 15 -13 16 -12 3 4 -13 16 -21 21 -21
13z"/>
<path d="M2658 4363 c7 -3 16 -2 19 1 4 3 -2 6 -13 5 -11 0 -14 -3 -6 -6z"/>
<path d="M5410 4346 c0 -2 7 -7 16 -10 8 -3 12 -2 9 4 -6 10 -25 14 -25 6z"/>
<path d="M2589 4313 c-13 -16 -12 -17 4 -4 16 13 21 21 13 21 -2 0 -10 -8 -17
-17z"/>
<path d="M2840 4319 c0 -5 5 -7 10 -4 6 3 10 8 10 11 0 2 -4 4 -10 4 -5 0 -10
-5 -10 -11z"/>
<path d="M5394 4311 c7 -11 46 -35 46 -28 0 3 -12 12 -26 22 -15 9 -23 12 -20
6z"/>
<path d="M5603 4285 c0 -8 4 -12 9 -9 5 3 6 10 3 15 -9 13 -12 11 -12 -6z"/>
<path d="M2534 4268 l-19 -23 23 19 c21 18 27 26 19 26 -2 0 -12 -10 -23 -22z"/>
<path d="M2730 4235 c-7 -8 -21 -15 -31 -15 -11 0 -19 -4 -19 -10 0 -17 21
-11 52 15 16 14 25 25 20 25 -5 0 -15 -7 -22 -15z"/>
<path d="M5486 4236 c3 -8 13 -17 22 -21 13 -5 13 -2 -3 15 -21 24 -26 25 -19
6z"/>
<path d="M2507 4212 c-15 -16 -15 -18 1 -18 10 0 18 8 18 18 0 10 -1 18 -2 18
0 0 -8 -8 -17 -18z"/>
<path d="M2464 4198 l-19 -23 23 19 c21 18 27 26 19 26 -2 0 -12 -10 -23 -22z"/>
<path d="M2654 4176 c-10 -8 -16 -17 -13 -20 3 -3 14 3 24 14 21 23 17 26 -11
6z"/>
<path d="M2570 4120 c-11 -7 -12 -12 -3 -21 13 -13 33 -4 33 17 0 16 -9 18
-30 4z"/>
<path d="M5660 4111 c0 -6 4 -12 8 -15 5 -3 9 1 9 9 0 8 -4 15 -9 15 -4 0 -8
-4 -8 -9z"/>
<path d="M5650 4085 c13 -14 26 -25 28 -25 3 0 -5 11 -18 25 -13 14 -26 25
-28 25 -3 0 5 -11 18 -25z"/>
<path d="M2380 4078 c0 -9 5 -20 10 -23 13 -8 13 5 0 25 -8 13 -10 13 -10 -2z"/>
<path d="M2540 4068 c-16 -7 -20 -12 -12 -15 8 -3 21 2 30 11 19 18 17 19 -18
4z"/>
<path d="M5883 4051 c0 -11 5 -18 9 -15 4 3 5 11 1 19 -7 21 -12 19 -10 -4z"/>
<path d="M2330 4046 c0 -8 5 -18 10 -21 6 -4 8 -11 5 -16 -4 -5 1 -9 9 -9 23
0 40 36 21 44 -8 3 -15 1 -15 -4 0 -6 -5 -10 -11 -10 -6 0 -9 7 -5 15 3 8 1
15 -4 15 -6 0 -10 -6 -10 -14z"/>
<path d="M5840 4051 c0 -6 4 -13 10 -16 6 -3 7 1 4 9 -7 18 -14 21 -14 7z"/>
<path d="M5737 4034 c-3 -3 -3 -13 0 -22 5 -14 2 -13 -17 3 -15 13 -11 4 11
-22 18 -24 40 -43 47 -43 7 0 11 -4 8 -9 -3 -5 3 -20 14 -32 14 -18 20 -20 21
-9 1 8 2 22 3 30 2 22 -13 40 -30 33 -23 -9 -42 15 -38 47 3 28 -5 38 -19 24z
m75 -92 c-10 -3 -10 -7 0 -20 12 -15 11 -15 -4 -4 -18 14 -13 47 5 35 8 -5 7
-8 -1 -11z"/>
<path d="M2288 4003 c-26 -31 -27 -39 -7 -40 10 -1 20 1 20 5 3 17 6 52 4 52
-1 0 -9 -8 -17 -17z m4 -25 c-7 -7 -12 -8 -12 -2 0 14 12 26 19 19 2 -3 -1
-11 -7 -17z"/>
<path d="M2400 4010 c0 -5 5 -10 11 -10 5 0 7 5 4 10 -3 6 -8 10 -11 10 -2 0
-4 -4 -4 -10z"/>
<path d="M5890 3781 c0 -5 5 -13 10 -16 6 -3 10 -2 10 4 0 5 -4 13 -10 16 -5
3 -10 2 -10 -4z"/>
<path d="M1400 4060 c-15 -5 -18 -8 -8 -9 9 -1 25 -4 35 -7 13 -4 15 -3 4 4
-11 8 -11 10 0 15 21 8 -3 6 -31 -3z"/>
<path d="M1525 4050 c17 -4 39 -11 50 -15 l20 -8 -20 16 c-11 9 -33 16 -50 16
l-30 -1 30 -8z"/>
<path d="M1610 3995 c-8 -9 -8 -15 -2 -15 12 0 26 19 19 26 -2 2 -10 -2 -17
-11z"/>
<path d="M1425 3980 c-13 -6 -15 -9 -5 -9 8 0 22 4 30 9 18 12 2 12 -25 0z"/>
<path d="M1485 3980 c3 -5 13 -10 21 -10 8 0 12 5 9 10 -3 6 -13 10 -21 10 -8
0 -12 -4 -9 -10z"/>
<path d="M1556 3975 c-3 -8 -13 -15 -23 -15 -17 -1 -17 -1 1 -11 32 -19 57
-49 50 -61 -4 -6 -3 -8 3 -5 6 4 10 19 10 34 0 16 -2 22 -4 16 -3 -7 -9 -13
-14 -13 -10 0 -7 35 4 46 12 12 8 24 -7 24 -8 0 -16 -7 -20 -15z"/>
<path d="M1640 3981 c0 -5 5 -13 10 -16 6 -3 10 -2 10 4 0 5 -4 13 -10 16 -5
3 -10 2 -10 -4z"/>
<path d="M1385 3950 c3 -5 8 -10 11 -10 2 0 4 5 4 10 0 6 -5 10 -11 10 -5 0
-7 -4 -4 -10z"/>
<path d="M1630 3906 c0 -9 7 -16 16 -16 9 0 14 5 12 12 -6 18 -28 21 -28 4z"/>
<path d="M6670 4049 c-12 -8 -10 -10 9 -5 16 3 29 -1 37 -12 10 -14 15 -15 25
-4 11 10 10 12 -5 12 -9 0 -15 4 -12 8 7 12 -37 13 -54 1z"/>
<path d="M6847 4047 c18 -7 33 -15 32 -20 0 -4 5 -15 10 -25 6 -9 11 -12 11
-6 0 5 -5 15 -12 22 -9 9 -9 12 3 13 18 1 -41 28 -61 28 -8 0 0 -6 17 -12z"/>
<path d="M6738 4013 c-10 -2 -18 -9 -18 -14 0 -6 10 -5 23 2 37 20 36 23 -5
12z"/>
<path d="M6808 4013 c6 -2 18 -2 25 0 6 3 1 5 -13 5 -14 0 -19 -2 -12 -5z"/>
<path d="M6916 4005 c4 -10 1 -21 -7 -26 -10 -6 -11 -11 -3 -19 12 -12 44 -3
44 13 0 7 -4 7 -12 -1 -20 -20 -33 -14 -14 7 15 16 15 19 1 31 -13 11 -14 10
-9 -5z"/>
<path d="M6860 3991 c0 -6 5 -13 10 -16 6 -3 10 1 10 9 0 9 -4 16 -10 16 -5 0
-10 -4 -10 -9z"/>
<path d="M6734 3980 c-23 -9 -42 -30 -27 -30 4 0 19 9 33 20 27 21 26 23 -6
10z"/>
<path d="M6808 3973 c12 -2 22 -8 22 -13 0 -5 9 -14 21 -20 18 -10 19 -10 10
8 -11 21 -33 33 -59 31 -10 -1 -8 -4 6 -6z"/>
<path d="M6713 3943 c-39 -20 -55 -49 -57 -106 0 -25 0 -44 2 -42 2 1 16 -10
31 -26 39 -39 72 -45 118 -22 95 46 89 175 -9 204 -42 11 -46 11 -85 -8z"/>
<path d="M6970 3923 c0 -4 5 -15 10 -23 8 -13 10 -13 10 2 0 9 -4 20 -10 23
-5 3 -10 3 -10 -2z"/>
<path d="M6543 3855 c0 -27 2 -38 4 -22 2 15 2 37 0 50 -2 12 -4 0 -4 -28z"/>
</g>
</svg>
